<?xml version="1.0" standalone="no"?>
<!DOCTYPE svg PUBLIC "-//W3C//DTD SVG 20010904//EN"
 "http://www.w3.org/TR/2001/REC-SVG-20010904/DTD/svg10.dtd">
<svg version="1.0" xmlns="http://www.w3.org/2000/svg"
 width="1018.000000pt" height="1018.000000pt" viewBox="0 0 1018.000000 1018.000000"
 preserveAspectRatio="xMidYMid meet">

<g transform="translate(0.000000,1018.000000) scale(0.100000,-0.100000)"
fill="#000000" stroke="none">
<path d="M5090 9789 c-124 -11 -377 -62 -419 -84 -17 -8 -35 -15 -41 -15 -6 0
-35 -11 -63 -24 -85 -39 -148 -66 -215 -92 -35 -13 -89 -37 -120 -52 -32 -16
-82 -41 -112 -57 -97 -48 -131 -71 -228 -157 -52 -45 -117 -101 -144 -123 -87
-71 -375 -364 -411 -418 -83 -126 -187 -329 -220 -432 -26 -81 -61 -232 -72
-315 -4 -25 -15 -88 -25 -140 -44 -219 -60 -713 -32 -985 8 -71 17 -191 22
-265 6 -104 12 -146 29 -183 25 -58 27 -105 5 -114 -9 -3 -36 -1 -60 4 -25 6
-59 7 -77 3 -30 -7 -29 -8 15 -9 26 -1 58 -5 73 -11 14 -5 39 -11 55 -12 17
-1 30 -6 30 -10 0 -4 6 -8 14 -8 7 0 36 -18 64 -40 27 -22 57 -40 65 -40 26 0
70 -45 127 -129 30 -44 59 -80 63 -81 5 0 0 15 -11 33 -11 17 -50 85 -87 151
l-67 118 5 202 c3 146 8 217 20 258 9 32 24 142 32 245 8 104 24 233 35 288
11 55 31 199 45 320 38 332 79 498 155 625 54 91 176 228 257 289 153 115 269
128 693 81 91 -10 228 -21 305 -25 77 -3 194 -13 260 -22 143 -19 272 -13 425
18 156 31 294 23 504 -31 183 -48 265 -77 356 -127 36 -20 103 -56 150 -81
264 -140 286 -204 294 -862 3 -260 8 -365 20 -425 27 -139 75 -570 76 -680 0
-41 -14 -141 -35 -243 -19 -95 -35 -180 -35 -190 0 -37 32 16 65 109 44 124
68 177 98 217 14 19 29 53 32 75 10 57 22 77 46 77 19 0 18 2 -6 27 -30 33
-30 44 -10 218 21 189 34 520 25 670 -4 72 -18 216 -30 320 -19 161 -21 219
-16 380 5 156 4 201 -9 250 -20 76 -52 125 -106 161 -23 16 -64 49 -91 74 -45
42 -49 49 -52 100 -3 30 -9 84 -15 120 -6 36 -8 88 -5 116 6 49 6 51 -48 112
-43 50 -208 316 -208 337 0 3 -22 36 -50 74 -70 96 -175 174 -324 238 -126 55
-296 111 -372 122 -38 6 -105 17 -149 25 -44 8 -125 17 -180 20 -55 4 -125 8
-155 10 -30 2 -102 0 -160 -5z"/>
<path d="M3780 7378 c-79 -39 -148 -106 -234 -226 -113 -159 -116 -167 -116
-339 0 -162 7 -226 24 -220 11 4 55 89 160 308 73 153 80 160 201 201 60 20
88 23 191 21 148 -2 214 -13 374 -65 191 -61 210 -69 276 -114 96 -66 103 -68
125 -48 24 22 24 50 -2 126 -39 116 -103 172 -271 240 -208 83 -474 148 -603
148 -49 0 -74 -6 -125 -32z"/>
<path d="M6025 7319 c-264 -16 -470 -91 -542 -197 -29 -44 -43 -115 -43 -217
0 -97 6 -102 60 -52 65 59 104 84 200 122 131 52 204 72 316 86 159 20 274 1
448 -71 95 -40 150 -86 183 -156 13 -29 33 -54 43 -57 19 -5 58 29 78 69 20
39 -13 114 -93 204 -22 26 -55 64 -74 86 -60 70 -153 143 -205 163 -63 23
-205 31 -371 20z"/>
<path d="M4075 6809 c-180 -44 -313 -136 -363 -251 -19 -44 2 -32 36 21 72
110 284 211 446 211 121 0 265 -55 356 -137 46 -42 50 -43 40 -17 -21 53 -86
101 -205 149 -57 23 -88 28 -170 31 -55 2 -118 -1 -140 -7z"/>
<path d="M5994 6769 c-142 -13 -311 -82 -371 -152 -33 -39 -15 -40 31 -3 54
44 72 53 180 89 115 38 272 48 358 23 82 -24 170 -86 221 -155 49 -67 68 -71
35 -8 -31 63 -57 94 -102 124 -112 75 -203 96 -352 82z"/>
<path d="M4136 6699 c-78 -13 -185 -71 -243 -131 -51 -55 -105 -135 -118 -175
-5 -20 -3 -23 19 -23 27 0 49 18 71 59 18 36 168 177 194 184 25 6 26 -2 6
-29 -23 -31 -19 -113 10 -171 38 -76 55 -87 140 -91 96 -5 133 8 170 60 37 53
47 147 21 199 -9 18 -16 33 -16 35 0 9 135 -55 184 -87 32 -21 61 -39 64 -39
11 0 -35 44 -83 79 -146 108 -289 152 -419 130z m72 -243 c5 -26 -26 -50 -45
-35 -14 12 -17 41 -6 53 13 13 48 1 51 -18z"/>
<path d="M5890 6656 c-90 -23 -247 -95 -275 -126 -19 -21 -18 -21 47 4 37 13
76 29 87 35 11 6 21 11 23 11 2 0 4 -39 3 -86 0 -84 1 -86 32 -114 33 -30 105
-46 196 -44 87 2 131 62 125 175 -2 38 0 69 3 69 21 0 121 -90 176 -158 22
-27 62 -37 70 -17 8 22 -41 98 -91 142 -24 22 -76 56 -114 76 -58 30 -84 37
-149 41 -50 4 -97 1 -133 -8z m30 -201 c16 -19 3 -55 -20 -55 -25 0 -41 29
-29 52 12 22 32 23 49 3z"/>
<path d="M4768 6523 c-27 -60 -48 -247 -30 -265 9 -9 17 -7 33 8 12 10 22 17
23 15 0 -3 9 0 19 5 33 19 49 187 23 249 -21 49 -43 44 -68 -12z"/>
<path d="M7110 6406 c0 -4 12 -19 26 -34 20 -21 24 -22 16 -6 -11 22 -42 51
-42 40z"/>
<path d="M7180 6300 c11 -22 23 -40 25 -40 3 0 -4 18 -15 40 -11 22 -23 40
-25 40 -3 0 4 -18 15 -40z"/>
<path d="M5416 6302 c-4 -11 -2 -31 4 -46 5 -15 10 -38 10 -51 0 -42 15 -35
17 8 1 23 3 55 5 72 4 35 -26 49 -36 17z"/>
<path d="M7067 6274 c-3 -4 12 -23 35 -43 33 -31 41 -44 42 -76 1 -43 5 -40
-116 -96 -26 -12 -63 -35 -82 -50 l-34 -29 -5 -247 -4 -248 -47 -176 c-25 -97
-58 -205 -73 -240 -44 -106 -124 -217 -250 -350 -145 -153 -157 -178 -208
-436 -57 -286 -104 -351 -154 -217 -17 45 -24 91 -51 354 -5 52 -14 112 -20
133 -15 53 -73 113 -139 146 -58 29 -321 121 -347 121 -15 0 -225 102 -284
138 -44 27 -85 28 -135 2 -52 -27 -74 -27 -185 0 -108 27 -155 21 -225 -29
-100 -71 -225 -113 -370 -126 -74 -6 -149 -23 -218 -48 -60 -21 -138 -117
-161 -197 -28 -97 -28 -129 0 -214 39 -117 23 -188 -41 -188 -35 0 -76 40
-116 116 -17 33 -49 86 -69 116 -39 57 -54 76 -158 194 -59 67 -145 189 -188
266 -10 19 -22 37 -25 40 -8 6 -72 178 -93 250 -9 30 -28 105 -42 165 -14 61
-39 157 -55 215 -17 58 -37 158 -45 224 -8 65 -23 137 -33 161 -22 49 -153
166 -277 248 -42 27 -79 59 -82 69 -7 28 -22 2 -22 -37 0 -39 15 -64 23 -41 5
12 33 -11 116 -92 60 -59 123 -114 139 -124 77 -42 94 -113 81 -351 -18 -354
-18 -349 1 -382 26 -43 46 -124 65 -255 19 -137 67 -354 102 -465 28 -90 92
-265 103 -280 4 -5 17 -37 30 -70 40 -103 66 -158 135 -281 l67 -119 -6 -90
c-3 -54 -2 -73 3 -48 4 24 10 45 13 48 5 6 45 -52 171 -245 77 -119 306 -323
434 -388 48 -24 287 -104 373 -125 36 -9 101 -21 145 -27 92 -12 653 -17 735
-6 231 31 272 40 375 85 191 83 213 100 324 241 36 47 79 98 95 115 40 43 111
155 126 200 19 58 69 155 80 155 6 0 10 -19 10 -43 0 -24 9 -78 20 -121 12
-43 18 -87 14 -98 -4 -13 -2 -18 4 -14 7 4 9 -15 7 -55 -2 -42 1 -57 7 -48 7
11 8 9 4 -4 -3 -10 3 -46 14 -79 23 -72 38 -194 22 -185 -5 4 -8 17 -6 30 4
21 4 21 -5 1 -5 -11 -24 -28 -43 -37 -31 -16 -26 -22 16 -17 10 1 16 -2 13 -7
-3 -5 3 -10 14 -10 27 -2 47 -19 65 -56 20 -38 10 -46 -24 -19 -15 12 -36 29
-47 37 -28 20 -204 38 -295 30 -41 -3 -102 -14 -135 -24 -78 -24 -229 -100
-280 -141 -72 -58 -160 -115 -180 -117 -32 -4 -176 -13 -220 -14 -22 -1 -46
-6 -54 -13 -12 -8 -13 -8 -7 1 8 15 -19 7 -43 -11 -12 -9 -13 -8 -7 4 4 8 0 6
-9 -5 -9 -11 -17 -18 -18 -16 -3 7 -211 -11 -227 -19 -8 -4 -82 -13 -165 -19
-220 -16 -388 -61 -415 -111 -20 -37 -69 -25 -217 50 -76 39 -176 82 -223 97
-308 93 -345 111 -438 222 l-54 64 6 116 c3 64 8 164 12 223 4 58 3 127 0 151
l-7 45 -57 -25 c-84 -38 -112 -62 -169 -147 -55 -82 -70 -95 -203 -178 -83
-52 -194 -154 -275 -255 -22 -27 -56 -59 -75 -72 -51 -32 -119 -98 -140 -135
-10 -18 -21 -50 -24 -72 -4 -21 -19 -64 -34 -94 -38 -77 -87 -101 -192 -96
-41 1 -93 8 -115 14 -110 32 -277 -60 -341 -187 -58 -114 -115 -160 -246 -201
-36 -11 -76 -28 -89 -39 -13 -10 -49 -26 -79 -36 -48 -16 -77 -17 -258 -11
-174 5 -202 4 -195 -8 24 -42 255 -295 396 -432 811 -794 1834 -1283 2967
-1419 1069 -128 2179 100 3120 639 416 239 780 523 1131 885 164 168 198 211
168 211 -6 0 -23 8 -37 19 -127 90 -295 144 -492 160 l-125 10 -115 59 c-180
92 -209 111 -305 192 -49 42 -115 94 -145 117 -30 22 -60 46 -67 54 -17 21
-33 122 -33 209 0 68 -4 86 -35 147 -29 57 -60 95 -166 199 -72 71 -148 154
-168 184 -37 55 -45 61 -171 121 -77 36 -104 46 -187 64 -128 28 -232 105
-282 208 -58 119 -58 174 -3 285 22 46 44 93 48 105 3 12 26 67 49 122 56 130
98 253 134 395 26 102 43 191 96 500 21 123 26 223 29 606 3 394 -8 352 122
477 41 39 74 74 74 80 0 5 9 20 20 34 11 14 20 33 20 42 0 35 -22 91 -38 99
-26 14 -68 22 -75 16z m-2078 -1664 c54 -17 87 -20 205 -18 l141 3 135 -43
c74 -23 165 -52 202 -63 91 -27 156 -74 190 -135 83 -149 100 -221 78 -328
-14 -69 -55 -112 -180 -189 -67 -41 -111 -81 -216 -194 -72 -78 -153 -172
-180 -210 -26 -37 -61 -79 -77 -93 -40 -34 -160 -81 -211 -82 -85 -1 -176 56
-241 151 -24 36 -58 85 -75 109 -16 23 -30 45 -30 47 0 3 -7 13 -14 22 -8 10
-32 41 -53 69 -21 28 -76 91 -122 140 -118 126 -182 207 -230 295 -76 140 -68
206 38 315 71 73 70 72 281 159 36 14 74 30 85 35 75 34 184 38 274 10z"/>
<path d="M4441 4381 c-26 -17 11 -23 182 -28 137 -4 196 -10 287 -31 135 -31
225 -33 360 -8 108 20 151 24 341 30 137 4 186 14 158 32 -16 10 -262 10 -364
0 -38 -4 -110 -14 -160 -22 -109 -19 -195 -19 -289 0 -39 8 -98 17 -131 20
-116 11 -370 16 -384 7z"/>
<path d="M4766 4009 c-32 -25 -33 -46 -3 -85 31 -43 204 -192 249 -215 67 -35
140 -20 240 49 24 16 71 42 106 57 98 44 129 102 78 143 -21 16 -48 20 -163
25 -76 4 -194 16 -263 27 -163 26 -210 26 -244 -1z"/>
<path d="M5486 6084 c-19 -14 -19 -15 3 -63 41 -86 207 -214 331 -254 50 -17
208 -43 315 -52 141 -13 415 27 483 70 50 32 133 98 128 102 -2 3 -19 -2 -38
-11 -189 -87 -366 -125 -585 -126 -90 0 -293 32 -348 54 -68 29 -146 89 -184
142 -21 29 -41 51 -44 48 -3 -4 -6 2 -5 12 0 11 -8 36 -18 56 -17 33 -21 35
-38 22z"/>
<path d="M3505 5921 c55 -58 134 -103 234 -131 73 -21 106 -24 240 -24 148 1
192 6 332 42 20 5 44 14 55 20 18 11 18 11 -2 12 -11 0 -24 -3 -28 -7 -3 -4
-14 -8 -24 -10 -96 -17 -166 -21 -337 -19 -221 2 -264 11 -370 78 -27 17 -70
42 -95 56 l-45 25 40 -42z"/>
<path d="M7077 5929 c-10 -11 -16 -24 -13 -27 6 -6 35 27 36 41 0 11 -4 9 -23
-14z"/>
<path d="M7036 5862 c-21 -40 -33 -118 -18 -108 7 4 12 18 12 32 0 14 7 41 15
61 19 45 12 56 -9 15z"/>
<path d="M2919 5805 c-4 -29 11 -108 22 -120 8 -7 -2 106 -11 130 -7 17 -8 16
-11 -10z"/>
<path d="M7000 5705 c0 -22 -4 -57 -9 -77 -5 -21 -6 -36 -2 -33 4 2 13 28 21
58 9 40 10 59 2 73 -10 16 -11 13 -12 -21z"/>
<path d="M4640 5370 c-22 -53 -15 -133 16 -190 26 -49 75 -100 94 -100 5 0
-15 34 -43 76 l-52 76 1 84 c0 46 0 84 -1 84 -2 0 -8 -14 -15 -30z"/>
<path d="M5597 5390 c-3 -8 -8 -31 -11 -50 -8 -45 -62 -186 -88 -227 -21 -35
-12 -45 15 -15 40 43 105 243 95 287 -4 16 -6 17 -11 5z"/>
<path d="M5360 5296 c-54 -36 -83 -107 -47 -114 20 -4 122 70 138 100 23 43
-35 52 -91 14z"/>
<path d="M4806 5287 c-33 -24 -16 -58 53 -105 l63 -43 23 21 c30 28 37 67 17
87 -21 21 -91 53 -118 53 -11 0 -28 -6 -38 -13z"/>
<path d="M6427 3358 c-28 -32 -32 -43 -19 -52 10 -6 9 -36 -1 -53 -10 -16 20
-10 36 7 10 10 9 11 -3 5 -12 -7 -13 -6 -5 6 6 8 12 28 14 44 2 17 7 38 12 47
16 30 -7 28 -34 -4z"/>
<path d="M6390 3286 c0 -8 4 -17 8 -20 4 -2 8 4 8 15 0 10 -4 19 -8 19 -4 0
-8 -6 -8 -14z"/>
<path d="M6546 3272 c-5 -9 -2 -39 5 -46 3 -3 5 8 4 24 0 32 -1 35 -9 22z"/>
<path d="M6570 3015 c-8 -9 -8 -15 -2 -15 12 0 26 19 19 26 -2 2 -10 -2 -17
-11z"/>
</g>
</svg>
