<svg xmlns="http://www.w3.org/2000/svg" viewBox="0 0 512 512" width="512" height="512">
	<defs>
		<linearGradient id="grd1" gradientUnits="userSpaceOnUse"  x1="-402.224" y1="427" x2="-107.776" y2="-83">
			<stop offset="0" stop-color="#ce9bf3"  />
			<stop offset="1" stop-color="#8ee5f7"  />
		</linearGradient>
		<linearGradient id="grd2" gradientUnits="userSpaceOnUse"  x1="108.776" y1="511" x2="403.224" y2="1">
			<stop offset="0" stop-color="#ce9bf3"  />
			<stop offset="1" stop-color="#8ee5f7"  />
		</linearGradient>
	</defs>
	<style>
		tspan { white-space:pre }
		.shp0 { fill: url(#grd1) } 
		.shp1 { fill: url(#grd2) } 
	</style>
	<path id="Layer 1" class="shp0" d="M-255 427C-396.01 427 -510 313.01 -510 172C-510 30.98 -396.01 -83 -255 -83C-113.98 -83 0 30.98 0 172C0 313.01 -113.98 427 -255 427Z" />
	<path id="Shape 1" class="shp1" d="M256 511C114.98 511 1 397.01 1 256C1 114.99 114.98 1 256 1C397.01 1 511 114.99 511 256C511 397.01 397.01 511 256 511Z" />
	<path id="S " fill="#fdfdfd" d="M348.4 139L335 164.4Q332.6 168.6 329.8 170.6Q327.2 172.4 323.2 172.4Q319 172.4 314 169.4Q309.2 166.2 302.4 162.4Q295.6 158.6 286.4 155.6Q277.4 152.4 265 152.4Q253.8 152.4 245.4 155.2Q237 157.8 231.2 162.6Q225.6 167.4 222.8 174.2Q220 180.8 220 188.8Q220 199 225.6 205.8Q231.4 212.6 240.8 217.4Q250.2 222.2 262.2 226Q274.2 229.8 286.8 234.2Q299.4 238.4 311.4 244.2Q323.4 249.8 332.8 258.6Q342.2 267.2 347.8 279.8Q353.6 292.4 353.6 310.4Q353.6 330 346.8 347.2Q340.2 364.2 327.2 377Q314.4 389.6 295.8 397Q277.2 404.2 253.2 404.2Q239.4 404.2 226 401.6Q212.6 398.8 200.2 393.8Q188 388.8 177.2 381.8Q166.4 374.8 158 366.2L173.8 340.4Q175.8 337.6 179 335.8Q182.2 333.8 185.8 333.8Q190.8 333.8 196.6 338Q202.4 342 210.4 347Q218.4 352 229 356.2Q239.8 360.2 254.8 360.2Q277.8 360.2 290.4 349.4Q303 338.4 303 318Q303 306.6 297.2 299.4Q291.6 292.2 282.2 287.4Q272.8 282.4 260.8 279Q248.8 275.6 236.4 271.6Q224 267.6 212 262Q200 256.4 190.6 247.4Q181.2 238.4 175.4 225Q169.8 211.4 169.8 191.6Q169.8 175.8 176 160.8Q182.4 145.8 194.4 134.2Q206.4 122.6 224 115.6Q241.6 108.6 264.4 108.6Q290 108.6 311.6 116.6Q333.2 124.6 348.4 139Z" />
</svg>